<svg width="172" height="50" viewBox="0 0 172 50" fill="none" xmlns="http://www.w3.org/2000/svg">
<path d="M46.1316 16L42.2045 21.5212C42.2045 21.5212 62.5779 21.5212 63.6193 21.5212C64.7042 21.5212 64.6825 21.9476 64.1618 22.6883C63.6193 23.4514 62.7298 24.7531 62.1873 25.5162C61.9053 25.8978 61.4063 26.616 63.0769 26.616C64.8344 26.616 71.8425 26.616 71.8425 26.616C71.8425 26.616 73.2528 24.6185 74.4461 22.9576C76.0517 20.6908 74.5763 16 68.8266 16C63.641 16 46.1316 16 46.1316 16Z" fill="#CC0000"/>
<path d="M40.6213 33.9999L48.519 22.9126C48.519 22.9126 57.2629 22.9126 58.3043 22.9126C59.3892 22.9126 59.3675 23.339 58.8468 24.0797C58.3043 24.8428 57.3931 26.1221 56.8506 26.8852C56.5686 27.2667 56.0696 27.9849 57.7402 27.9849C59.4977 27.9849 70.8669 27.9849 70.8669 27.9849C69.782 29.5336 66.2454 33.9999 59.8882 33.9999C54.7027 33.9999 40.6213 33.9999 40.6213 33.9999Z" fill="#CC0000"/>
<path d="M85.8157 27.9626L81.5414 33.9776H70.259L74.5333 27.9626H85.8157Z" fill="#CC0000"/>
<path d="M103.108 26.616H75.4874L83.0596 16H94.342L90.0026 22.0823H95.058L99.3757 16H110.658L103.108 26.616Z" fill="#CC0000"/>
<path d="M102.153 27.985L97.879 34H86.5966L90.8709 27.985H102.153Z" fill="#CC0000"/>
<path d="M24.5 30.3417H41.1415L40.2303 31.621H24.5V30.3417Z" fill="#CC0000"/>
<path d="M24.5 27.985H42.8339L41.9226 29.2419H24.5V27.985Z" fill="#CC0000"/>
<path d="M24.5 32.7207H39.4492L38.5379 34H24.5V32.7207Z" fill="#CC0000"/>
<path d="M147.499 31.621H130.945L131.834 30.3417H147.499V31.621Z" fill="#CC0000"/>
<path d="M147.5 34H129.253L130.164 32.7207H147.5V34Z" fill="#CC0000"/>
<path d="M133.527 27.985H147.5V29.2419L132.616 29.2643L133.527 27.985Z" fill="#CC0000"/>
<path d="M126.302 16L118.751 26.616H106.796L114.347 16H126.302Z" fill="#CC0000"/>
<path d="M105.819 27.985C105.819 27.985 104.995 29.1521 104.583 29.7132C103.172 31.6883 104.409 34 109.052 34C114.39 34 127.191 34 127.191 34L131.465 27.985H105.819Z" fill="#CC0000"/>
</svg>
