<svg width="172" height="50" viewBox="0 0 172 50" fill="none" xmlns="http://www.w3.org/2000/svg">
<g clip-path="url(#clip0)">
<path fill-rule="evenodd" clip-rule="evenodd" d="M55.4379 4.10618L38.8897 13.1314L57.2578 23.8144C57.4245 23.9113 57.6137 24.105 57.6137 24.3145L57.6114 40.0496C57.6114 40.2703 57.4177 40.4189 57.3952 40.4325L56.3005 41.0429C56.1294 41.1375 55.8816 41.1465 55.6338 41.0091L54.6563 40.4685C54.5144 40.3897 54.3928 40.1982 54.3928 39.9955V26.0736C54.3928 25.8281 54.127 25.7109 53.9468 25.6073L38 16.3253V34.9434C38 35.3556 38.3964 35.8264 38.7298 36.0223L55.296 45.7954C55.8275 46.1084 56.1429 46.0566 56.8794 45.6895L73.2496 36.0268C73.6325 35.8016 74.0042 35.3804 74.0042 34.9164V16.3208L63.0216 22.7401C62.8842 22.8211 62.6342 22.8504 62.4901 22.7671L61.4968 22.1927C61.2985 22.0779 61.1206 21.8504 61.1161 21.6116L61.0936 20.4494C61.0913 20.276 61.2062 20.0462 61.3594 19.9584L73.1077 13.1179L56.5641 4.10843C56.305 3.96878 55.7059 3.96203 55.4379 4.10618Z" fill="url(#paint0_linear)"/>
<path d="M100.22 34.8985V12.9964H96.1248V20.1792C95.7442 19.9562 94.0684 19.6567 92.753 19.6927C88.3744 19.8143 85.1197 23.2717 85.2098 27.4927C85.327 33.0155 88.5816 35.3309 93.6855 35.6553C96.3028 35.8219 99.4403 35.0246 100.22 34.8985ZM96.1406 31.9411C95.8726 32.0019 94.0955 32.1889 93.4333 32.0808C90.7349 31.6415 89.4375 30.2608 89.4083 27.8598C89.379 25.3011 90.4421 23.4429 93.6044 23.3123C94.1405 23.2897 95.9086 23.6028 96.1248 23.8055L96.1406 31.9411Z" fill="#3C3D3B"/>
<path d="M133.9 34.8985V12.9964H129.805V20.1792C129.424 19.9562 127.748 19.6567 126.433 19.6927C122.054 19.8143 118.8 23.2717 118.89 27.4927C119.007 33.0155 122.262 35.3309 127.365 35.6553C129.98 35.8219 133.118 35.0246 133.9 34.8985ZM129.821 31.9411C129.553 32.0019 127.775 32.1889 127.113 32.0808C124.415 31.6415 123.117 30.2608 123.088 27.8598C123.059 25.3011 124.122 23.4429 127.284 23.3123C127.82 23.2897 129.589 23.6028 129.805 23.8055L129.821 31.9411Z" fill="#3C3D3B"/>
<path d="M102.52 20.9786V41.545H106.664L106.648 23.6589C106.916 23.5981 108.68 23.3616 109.349 23.4022C112.081 23.5621 113.324 25.0869 113.387 27.4902C113.428 29.0263 112.916 30.2989 111.914 31.094C111.16 31.6931 110.108 32.004 108.891 32.0378L108.898 35.6348C110.806 35.6911 112.739 35.2879 114.268 34.3014C116.252 33.022 117.662 30.1863 117.583 27.488C117.444 22.6116 114.696 19.8367 109.108 19.7173C106.493 19.6632 103.315 20.5799 102.52 20.9786Z" fill="#3C3D3B"/>
</g>
<defs>
<linearGradient id="paint0_linear" x1="37.9788" y1="35.1298" x2="73.8567" y2="14.4157" gradientUnits="userSpaceOnUse">
<stop stop-color="#AF1E45"/>
<stop offset="0.0205" stop-color="#AF1E45"/>
<stop offset="0.1523" stop-color="#AF1E45"/>
<stop offset="0.205" stop-color="#BC213E"/>
<stop offset="0.2748" stop-color="#C92535"/>
<stop offset="0.3573" stop-color="#D3272F"/>
<stop offset="0.4593" stop-color="#DB292A"/>
<stop offset="0.6025" stop-color="#E02A28"/>
<stop offset="1" stop-color="#E12A27"/>
</linearGradient>
<clipPath id="clip0">
<rect width="95.8993" height="42" fill="white" transform="translate(38 4)"/>
</clipPath>
</defs>
</svg>
