<svg width="450" height="200" viewBox="0 0 450 200" fill="none" xmlns="http://www.w3.org/2000/svg">
<g clip-path="url(#clip0_1_3)">
<path d="M84.8541 31.7344C64.0885 34.6096 52.2681 40.1471 39.4893 52.9259C24.9002 67.4085 19.8952 80.6133 20.0017 104.041C20.2146 138.757 37.466 161.439 68.1351 167.509C88.4747 171.449 110.838 164.74 120.422 151.642L123.616 147.276V157.073V166.977L137.247 166.657L150.771 166.338L151.091 130.877L151.304 95.5219H118.292H85.28V109.898V124.274H96.9939C103.703 124.274 108.708 124.7 108.708 125.233C108.708 127.256 101.679 131.622 96.568 132.793C89.7526 134.284 80.701 132.58 75.27 128.747C65.0469 121.718 61.3198 102.976 66.7508 86.1508C69.3065 78.4835 74.2051 73.0525 82.2983 69.3254C88.4747 66.4501 89.9656 66.2371 101.254 66.2371C112.328 66.3436 122.552 67.941 134.585 71.6681C136.289 72.2006 136.395 70.9227 136.395 54.5232V36.9524L133.733 35.8875C124.362 32.3733 97.2069 30.0305 84.8541 31.7344Z" fill="#061AB1"/>
<path d="M312.104 31.3084C290.912 34.0772 276.749 43.0223 269.721 58.0374C267.059 63.5749 266.846 65.2787 266.846 76.8862C266.846 91.9013 268.549 96.7998 276.217 104.254C283.032 110.963 290.593 114.264 308.483 118.63C317.215 120.76 324.989 122.89 325.735 123.529C327.758 125.126 327.225 129.066 324.776 131.303C322.753 133.113 320.836 133.326 307.951 133.219C296.343 133.113 291.019 132.58 281.222 130.344C274.513 128.747 268.656 127.469 268.23 127.469C267.697 127.469 267.378 135.562 267.378 145.466V163.463L270.36 164.208C277.601 166.018 292.403 167.935 304.117 168.574C338.726 170.384 362.048 158.032 367.905 134.817C371.951 118.417 368.118 102.976 357.469 93.6051C350.44 87.4287 341.815 84.021 322.54 79.6549C309.974 76.7797 306.886 74.7564 308.377 70.3903C310.187 65.1723 316.257 64.0009 332.337 65.4917C339.685 66.1307 349.375 67.6215 353.848 68.6864C358.427 69.8578 362.367 70.4968 362.687 70.1773C363.006 69.8578 363.219 62.084 363.219 52.8194V35.994L357.682 34.9291C343.731 32.0539 320.091 30.2435 312.104 31.3084Z" fill="#061AB1"/>
<path d="M164.615 33.9707C164.296 34.7161 164.189 64.8528 164.296 100.846L164.615 166.338L209.128 166.657L253.534 166.87V149.299V131.729H230.639H207.744L207.531 82.4236L207.211 33.2252L186.126 32.9058C169.94 32.6928 164.935 32.9058 164.615 33.9707Z" fill="#061AB1"/>
<circle cx="404.75" cy="144.507" r="24.4927" fill="#FFD100"/>
</g>
<defs>
<clipPath id="clip0_1_3">
<rect width="450" height="200" fill="white"/>
</clipPath>
</defs>
</svg>
