<svg width="70" height="70" viewBox="0 0 70 70" fill="none" xmlns="http://www.w3.org/2000/svg">
<g clip-path="url(#clip0_1_2)">
<rect width="70" height="70" fill="white"/>
<path d="M31.5385 24.0467L31.6456 23.2976L31.8598 22.6517L32.1768 22.1178L32.4981 21.5796L33.0294 21.1491L33.6719 20.8262L34.3103 20.6152H34.9486H35.694L36.3323 20.8262L36.9749 21.1491L37.399 21.5796L37.8231 22.1178L38.1444 22.6517L38.3586 23.2976L38.4657 24.0467L38.3586 24.8002L38.1444 25.4461L37.8231 26.0876L37.399 26.5181L36.9749 26.9478L36.3323 27.2699L35.694 27.4843L34.9486 27.592L34.3103 27.4843L33.6719 27.2699L33.0294 26.9478L32.4981 26.5181L32.1768 26.0876L31.8598 25.4461L31.6456 24.8002L31.5385 24.0467ZM12.6805 61.8407L13.8543 62.8069L15.0238 63.6659L16.1976 64.5244L17.4743 65.3834L18.8622 66.135L20.1389 66.7792L21.5226 67.4234L23.0134 67.9602L24.4014 68.3897L25.8922 68.8191L27.383 69.2486L28.8739 69.5707L30.369 69.7854L31.8598 69.8927L33.4577 70H34.9485H36.5464L38.1444 69.8927L39.6352 69.7854L41.126 69.5707L42.6211 69.2486L44.1119 68.8191L45.6027 68.3897L46.9864 67.9602L48.4815 67.4234L49.8653 66.7792L51.1419 66.135L52.5299 65.3834L53.8065 64.5244L54.9803 63.6659L56.1498 62.8069L57.3236 61.8407L53.0611 57.2239L51.4632 58.6197L49.7581 59.8008L47.946 60.8741L46.1339 61.8407L44.219 62.5921L42.2998 63.2362L40.1707 63.6659L38.0373 63.9879V39.4017H44.1119V34.7853H38.0373V31.135L39.1039 30.7053L40.0636 30.0612L40.9161 29.3095L41.6615 28.4509L42.1927 27.592L42.6211 26.5181L42.9381 25.3384V24.1544V23.2976L42.8309 22.5441L42.621 21.6873L42.4068 21.0414L41.9784 20.2923L41.6615 19.6464L41.1259 19.0049L40.7018 18.4667L40.0635 17.9285L39.4252 17.4979L38.7826 17.1793L38.1443 16.8564L37.3989 16.5335L36.6535 16.3182L35.801 16.2106H34.9484H34.203L33.3505 16.3182L32.6052 16.5335L31.8597 16.8564L31.2214 17.1793L30.5788 17.4979L29.9405 17.9285L29.3022 18.4667L28.8738 19.0049L28.3426 19.6464L28.0213 20.2923L27.5972 21.0414L27.383 21.6873L27.1688 22.5441L27.0659 23.2976V24.1544V25.3384L27.3829 26.5181L27.8113 27.592L28.3426 28.4509L29.0879 29.3095L29.9404 30.0612L30.9001 30.7053L31.9667 31.135V34.7853H25.8921V39.4017H31.9667V63.9879L29.8334 63.6659L27.7043 63.2362L25.785 62.5921L23.8658 61.8407L21.9509 60.8741L20.2459 59.8008L18.5409 58.6197L16.9429 57.2239L12.6805 61.8407ZM0 34.7853L0.107126 33.0674L0.214272 31.2422L0.428482 29.5243L0.749775 27.8064L1.17388 26.1952L1.60228 24.4773L2.13347 22.867L2.7718 21.2567L3.5172 19.7541L4.26262 18.2514L5.1151 16.8564L6.07473 15.3538L7.03434 14.0621L8.10103 12.6671L9.16345 11.4874L10.3373 10.2L11.5068 9.12358L12.7877 8.05149L14.0643 6.97939L15.4523 6.01064L16.9431 5.04619L18.3268 4.29271L19.8176 3.43591L21.4156 2.79006L23.0135 2.14854L24.6157 1.61033L26.3164 1.17977L28.0214 0.74922L29.7264 0.430603L31.4315 0.215325L33.2436 0.107663L34.9486 0L36.7607 0.107663L38.5728 0.215325L40.2735 0.430603L41.9785 0.74922L43.6836 1.17977L45.3886 1.61033L46.9865 2.14854L48.5844 2.79006L50.0795 3.43591L51.6774 4.29271L53.0612 5.04619L54.552 6.01064L55.9357 6.97939L57.2166 8.05149L58.4932 9.12358L59.667 10.2L60.8365 11.4874L61.9032 12.6671L62.97 14.0621L63.9295 15.3538L64.8892 16.8564L65.7374 18.2514L66.4871 19.7541L67.2325 21.2567L67.8708 22.867L68.402 24.4773L68.8304 26.1952L69.2545 27.8064L69.5758 29.5243L69.79 31.2422L69.8929 33.0674L70 34.7853L69.8929 36.5028L69.79 38.0059L69.5758 39.6166L69.3616 41.2269L69.0403 42.73L68.6162 44.233L68.1921 45.7361L67.6566 47.2392L67.1254 48.6351L66.4871 50.0305L65.7374 51.4264L64.992 52.7146L64.2466 54.0033L63.3941 55.2915L62.4387 56.5797L61.4791 57.7608L57.0024 53.1443L58.3861 51.2115L59.7741 49.0643L60.8365 46.9171L61.7962 44.5551L62.4387 42.1931L62.97 39.831L63.287 37.3618L63.3941 34.7853V33.3894L63.287 31.8864L63.077 30.4905L62.8628 29.095L62.5416 27.6992L62.1174 26.3029L61.689 25.0155L61.1578 23.7281L60.6266 22.4364L59.984 21.1491L59.2386 19.9694L58.4932 18.7896L57.7478 17.7132L56.8953 16.5335L56.0428 15.5691L55.0832 14.4926L54.0208 13.5282L53.0612 12.6671L51.9945 11.8103L50.8249 10.9491L49.6511 10.2L48.4816 9.55413L47.3078 8.91261L46.0269 8.26677L44.7503 7.83621L43.3665 7.30231L42.0857 6.97939L40.7019 6.65648L39.3182 6.33356L37.9302 6.2259L36.4394 6.11823L34.9486 6.01057L33.5649 6.11823L32.0698 6.2259L30.6861 6.33356L29.3023 6.65648L27.9186 6.97939L26.6377 7.30231L25.254 7.83621L23.9731 8.26677L22.6965 8.91261L21.5227 9.55413L20.3531 10.2L19.1793 10.9491L18.0098 11.8103L16.9431 12.6671L15.9835 13.5282L14.9168 14.4926L13.9615 15.5691L13.109 16.5335L12.2565 17.7132L11.5068 18.7896L10.7614 19.9694L10.016 21.1491L9.37766 22.4364L8.84645 23.7281L8.31095 25.0155L7.88684 26.3029L7.45845 27.6992L7.14142 29.095L6.92724 30.4905L6.71303 31.8864L6.60588 33.3894V34.7853L6.71303 37.3618L7.03434 39.831L7.56553 42.1931L8.20814 44.5551L9.16345 46.9171L10.2302 49.0643L11.6139 51.2115L13.0019 53.1443L8.52514 57.7608L7.56553 56.5797L6.60594 55.2915L5.75344 54.0033L5.00802 52.7146L4.26262 51.4264L3.5172 50.0305L2.87891 48.6351L2.34768 47.2392L1.81217 45.7361L1.38807 44.233L0.959671 42.73L0.64267 41.2269L0.428482 39.6166L0.214272 38.0059L0.107126 36.5028L0 34.7853Z" fill="#003369"/>
</g>
<defs>
<clipPath id="clip0_1_2">
<rect width="70" height="70" fill="white"/>
</clipPath>
</defs>
</svg>
