<svg width="36" height="42" viewBox="0 0 36 42" fill="none" xmlns="http://www.w3.org/2000/svg">
<g clip-path="url(#clip0)">
<path d="M5.25159 34.7009C2.26878 32.2588 0.693245 28.7434 0.693245 24.545V4.58733C5.40347 2.09042 11.1069 0.824951 17.646 0.824951C24.1851 0.824951 29.8892 2.09042 34.5988 4.58733V24.545C34.5988 28.7434 33.0232 32.2563 30.0404 34.7009C27.3116 36.9375 18.6411 40.7421 17.6454 41.1751C16.6509 40.7421 7.98041 36.9381 5.25159 34.7009Z" fill="#330000"/>
<path d="M33.6705 4.35289C31.4912 4.15059 29.2274 4.01699 26.9215 4.01699C18.3695 4.01699 9.20113 5.85532 1.62154 12.8072V24.6899C1.62154 28.5601 3.05276 31.7918 5.77213 34.0083C8.17325 35.9619 15.5625 39.3084 17.646 40.2278C19.703 39.3222 27.0734 36.0199 29.5167 34.0083C32.2531 31.7533 33.6705 28.5966 33.6705 24.6899V4.35289ZM3.18825 23.4534V13.803H6.25677V23.5896C6.25677 24.4605 6.46726 25.7499 7.87453 25.7499C8.38451 25.7705 8.88909 25.6389 9.32402 25.3718V13.803H12.3888V27.1219C11.0046 27.9858 9.39344 28.4151 7.76298 28.3546C4.72535 28.3546 3.1851 26.706 3.1851 23.4534H3.18825ZM17.0385 34.5925H13.9681V14.5844C15.2101 13.8216 16.6494 13.4417 18.1061 13.4923C21.7708 13.4923 23.7843 16.2728 23.7843 20.7479C23.7843 25.2231 21.8306 28.3017 18.4212 28.3017C17.9545 28.3101 17.489 28.2513 17.0391 28.1271L17.0385 34.5925ZM17.0385 25.6182C17.3572 25.7376 17.6945 25.8003 18.0348 25.8035C19.7994 25.8035 20.6452 24.182 20.6452 20.8248C20.6452 17.3857 19.9072 15.9633 18.1243 15.9633C17.7503 15.9602 17.3797 16.0356 17.0366 16.1845L17.0385 25.6182ZM24.48 17.4935C24.4993 16.4178 24.9432 15.3934 25.7148 14.6438C26.4865 13.8942 27.5234 13.4803 28.5991 13.4923C29.8033 13.4284 30.9928 13.7804 31.9682 14.4893V17.1595C31.2452 16.4051 30.2621 15.9544 29.2186 15.899C28.3483 15.8915 27.4427 16.274 27.4131 17.3656C27.3834 18.4829 28.2872 18.9241 29.4297 19.5959C31.9941 21.1034 32.4901 22.4583 32.4308 24.2488C32.3722 26.2119 31.0191 28.3559 27.9859 28.3559C26.7965 28.3425 25.6319 28.0137 24.6111 27.403V24.5752C25.422 25.3079 26.4552 25.7477 27.5454 25.8243C28.6716 25.83 29.4127 25.1846 29.3863 24.1139C29.3629 23.1503 28.8191 22.6266 27.4685 21.8331C24.9369 20.3484 24.4819 19.1264 24.4775 17.4935H24.48ZM4.74488 35.2599C1.63856 32.7157 0 29.0598 0 24.6899V3.91615C4.90244 1.31715 10.8397 0 17.646 0C24.4523 0 30.3896 1.31715 35.292 3.91615V24.6899C35.292 29.0598 33.6534 32.7157 30.5471 35.2605C27.7074 37.5885 18.6821 41.5481 17.646 41.9987C16.6099 41.5481 7.58463 37.5885 4.74488 35.2599ZM28.9098 39.614V41.4171H29.235V40.6646H29.281C29.3056 40.7011 29.7707 41.4171 29.7707 41.4171H30.1646C30.1646 41.4171 29.6705 40.6942 29.6201 40.6261C29.7327 40.6069 29.8348 40.5481 29.908 40.4603C29.9811 40.3725 30.0205 40.2614 30.019 40.1472C30.0205 40.071 30.0054 39.9954 29.9748 39.9257C29.9442 39.856 29.8988 39.7937 29.8417 39.7433C29.7846 39.6929 29.7172 39.6555 29.6443 39.6337C29.5713 39.6119 29.4944 39.6063 29.419 39.6172L28.9098 39.614ZM29.3837 39.8774C29.6604 39.8774 29.6988 40.0129 29.6988 40.1295C29.6988 40.2984 29.6264 40.4125 29.2779 40.4125H29.2356V39.8762L29.3837 39.8774ZM30.6568 40.5203C30.6563 40.7615 30.5843 40.9972 30.4499 41.1976C30.3155 41.398 30.1248 41.5541 29.9017 41.6461C29.6787 41.7382 29.4334 41.7621 29.1968 41.7148C28.9602 41.6675 28.7429 41.5512 28.5724 41.3805C28.4019 41.2098 28.2858 40.9924 28.2388 40.7557C28.1917 40.5191 28.2159 40.2738 28.3081 40.0509C28.4004 39.8279 28.5567 39.6374 28.7572 39.5032C28.9577 39.369 29.1935 39.2973 29.4348 39.297C29.5954 39.2968 29.7545 39.3284 29.9029 39.3898C30.0513 39.4512 30.1862 39.5414 30.2997 39.655C30.4132 39.7686 30.5032 39.9036 30.5645 40.052C30.6257 40.2005 30.6571 40.3596 30.6568 40.5203ZM29.431 39.0361C29.1382 39.0365 28.852 39.1236 28.6086 39.2865C28.3653 39.4495 28.1757 39.6808 28.0637 39.9515C27.9518 40.2221 27.9226 40.5198 27.9798 40.807C28.037 41.0942 28.178 41.3581 28.385 41.5652C28.592 41.7723 28.8558 41.9134 29.143 41.9707C29.4302 42.028 29.7279 41.9989 29.9986 41.8871C30.2693 41.7753 30.5007 41.5858 30.6637 41.3425C30.8268 41.0992 30.914 40.8131 30.9145 40.5203C30.914 40.1269 30.7576 39.7498 30.4795 39.4716C30.2014 39.1934 29.8244 39.0368 29.431 39.0361Z" fill="#FFBE00"/>
</g>
<defs>
<clipPath id="clip0">
<rect width="35.292" height="42" fill="white"/>
</clipPath>
</defs>
</svg>
